<svg xmlns="http://www.w3.org/2000/svg" viewBox="0 0 32 32" fill="none">
  <defs>
    <linearGradient id="gradient" x1="0%" y1="0%" x2="100%" y2="100%">
      <stop offset="0%" style="stop-color:#9b59ff"/>
      <stop offset="100%" style="stop-color:#00f5d4"/>
    </linearGradient>
    <linearGradient id="gradientReverse" x1="0%" y1="0%" x2="100%" y2="100%">
      <stop offset="0%" style="stop-color:#00f5d4"/>
      <stop offset="100%" style="stop-color:#9b59ff"/>
    </linearGradient>
  </defs>
  <!-- Shield background -->
  <path d="M16 2L4 8v8c0 8 5 14 12 16 7-2 12-8 12-16V8L16 2z" fill="url(#gradient)" opacity="0.2"/>
  <!-- Shield outline -->
  <path d="M16 2L4 8v8c0 8 5 14 12 16 7-2 12-8 12-16V8L16 2z" stroke="url(#gradient)" stroke-width="2" fill="none"/>
  <!-- Lock body -->
  <rect x="11" y="13" width="10" height="9" rx="1" fill="url(#gradient)"/>
  <!-- Lock shackle -->
  <path d="M13 13v-2a3 3 0 016 0v2" stroke="url(#gradientReverse)" stroke-width="2" fill="none"/>
  <!-- Keyhole -->
  <circle cx="16" cy="17" r="1.5" fill="#0a0a0f"/>
  <path d="M16 18.5v2" stroke="#0a0a0f" stroke-width="1.5" stroke-linecap="round"/>
</svg>